<?xml version="1.0" encoding="UTF-8"?>
<svg fill="white" width="800px" height="800px" version="1.1" viewBox="144 144 512 512" xmlns="http://www.w3.org/2000/svg">
 <g>
  <path d="m237.31 557.44h10.496v52.48c0 5.7734 4.7227 10.496 10.496 10.496h304.39c5.7734 0 10.496-4.7227 10.496-10.496v-419.84c0-5.7734-4.7227-10.496-10.496-10.496h-304.39c-5.7734 0-10.496 4.7227-10.496 10.496v52.48h-10.496c-5.7734 0-10.496 4.7227-10.496 10.496v41.984c0 5.7734 4.7227 10.496 10.496 10.496h10.496v62.977h-10.496c-5.7734 0-10.496 4.7227-10.496 10.496v41.984c0 5.7734 4.7227 10.496 10.496 10.496h10.496v62.977h-10.496c-5.7734 0-10.496 4.7227-10.496 10.496v41.984c0 5.7695 4.7266 10.492 10.496 10.492zm31.488-356.86h283.39v398.85h-283.39v-41.984h10.496c5.7734 0 10.496-4.7227 10.496-10.496v-41.984c0-5.7734-4.7227-10.496-10.496-10.496h-10.496v-62.977h10.496c5.7734 0 10.496-4.7227 10.496-10.496v-41.984c0-5.7734-4.7227-10.496-10.496-10.496h-10.496v-62.977h10.496c5.7734 0 10.496-4.7227 10.496-10.496v-41.984c0-5.7734-4.7227-10.496-10.496-10.496h-10.496zm-20.992 62.977h20.992v20.992h-20.992zm0 125.95h20.992v20.992h-20.992zm0 125.95h20.992v20.992h-20.992z"/>
  <path d="m321.28 368.51h199.43c5.7734 0 10.496-4.7227 10.496-10.496s-4.7227-10.496-10.496-10.496h-199.43c-5.7734 0-10.496 4.7227-10.496 10.496s4.7227 10.496 10.496 10.496z"/>
  <path d="m321.28 410.5h199.43c5.7734 0 10.496-4.7227 10.496-10.496s-4.7227-10.496-10.496-10.496h-199.43c-5.7734 0-10.496 4.7227-10.496 10.496 0 5.7695 4.7227 10.496 10.496 10.496z"/>
  <path d="m321.28 452.48h199.43c5.7734 0 10.496-4.7227 10.496-10.496s-4.7227-10.496-10.496-10.496h-199.43c-5.7734 0-10.496 4.7227-10.496 10.496 0 5.7695 4.7227 10.496 10.496 10.496z"/>
  <path d="m321.28 494.46h199.43c5.7734 0 10.496-4.7227 10.496-10.496 0-5.7734-4.7227-10.496-10.496-10.496h-199.43c-5.7734 0-10.496 4.7227-10.496 10.496 0 5.7734 4.7227 10.496 10.496 10.496z"/>
  <path d="m321.28 536.45h199.43c5.7734 0 10.496-4.7227 10.496-10.496 0-5.7734-4.7227-10.496-10.496-10.496h-199.43c-5.7734 0-10.496 4.7227-10.496 10.496 0 5.7734 4.7227 10.496 10.496 10.496z"/>
  <path d="m384.25 284.54h20.992v20.992c0 5.7734 4.7227 10.496 10.496 10.496 5.7734 0 10.496-4.7227 10.496-10.496v-20.992h20.992c5.7734 0 10.496-4.7227 10.496-10.496s-4.7227-10.496-10.496-10.496h-20.992v-20.992c0-5.7734-4.7227-10.496-10.496-10.496-5.7734 0-10.496 4.7227-10.496 10.496v20.992h-20.992c-5.7734 0-10.496 4.7227-10.496 10.496s4.7227 10.496 10.496 10.496z"/>
 </g>
</svg>