<?xml version="1.0" encoding="UTF-8"?>
<svg fill="white" width="800px" height="800px" version="1.1" viewBox="144 144 512 512" xmlns="http://www.w3.org/2000/svg">
 <defs>
  <clipPath id="b">
   <path d="m514 546h137.9v19h-137.9z"/>
  </clipPath>
  <clipPath id="a">
   <path d="m148.09 401h281.91v138h-281.91z"/>
  </clipPath>
 </defs>
 <path d="m305.46 413.88 1.1523-4.8281c0.70312-2.9336 0.16797-5.9336-1.5-8.4453-1.668-2.5117-4.2305-4.1641-7.207-4.6562l-33.32-5.4844c-4.2969-0.70312-8.5664 1.2266-10.867 4.9258l-4.957 7.9609z"/>
 <path d="m207.51 243.14c0-2.2812 1.8477-4.1289 4.1289-4.1289l113.49-0.003907c11.73 0 21.949 7.9375 24.848 19.305l23.273 91.27-40.004 15.176c-2.1328 0.80859-3.2031 3.1914-2.3945 5.3242 0.625 1.6523 2.1953 2.6641 3.8633 2.6641 0.48828 0 0.98047-0.085938 1.4648-0.26953l14.852-5.6367 11.535 27.938 12.68-3.9766-7.707-30.223 7.7734-2.9492 22.402 87.84 7.9961-2.0742-47.73-187.12c-3.832-15.031-17.34-25.527-32.852-25.527h-121.75c-2.2773 0-4.1289 1.8516-4.1289 4.1289v159.28l8.2578 1.5312z"/>
 <path d="m263.18 382.07 8.1875-12.234c1.4258-2.1328 1.9336-4.6914 1.4297-7.207-0.50391-2.5156-1.957-4.6836-4.0977-6.0977l-13.789-9.1445c-1.5586-1.0352-2.9648-0.39453-3.5-0.070313-0.53125 0.32422-1.75 1.2734-1.5547 3.1367l3.5977 34.098c2.9258-1.668 6.2734-2.5469 9.7266-2.4805z"/>
 <path d="m463.05 409.69c2.2188-0.5 3.6211-2.7148 3.1211-4.9375s-2.7188-3.6211-4.9336-3.1211l-54.539 12.262 2.043 8.0078z"/>
 <path d="m446.18 269.58c0-0.64844 0.15234-1.2891 0.44531-1.8672l9.8281-19.418h-22.527v61.469h12.254z"/>
 <path d="m503.18 459.03-8.4883-4.4883v42.57l8.4883-4.4844z"/>
 <path d="m364.32 402.89v29l20.234-4.5508-7.2695-28.516z"/>
 <g clip-path="url(#b)">
  <path d="m646.91 553.84-132.28-7.3906 7.7305 17.969h124.26c2.918 0 5.293-2.375 5.293-5.293-0.003906-2.8086-2.1992-5.1289-5-5.2852z"/>
 </g>
 <path d="m406.59 479.89v-8.2227l-16.395 4.2539-24.41 32.355v14.59h8.6719c1.5938-19.645 14.473-36.133 32.133-42.977z"/>
 <path d="m424.78 484.75c-23.297 0-42.246 18.953-42.246 42.246 0 23.297 18.953 42.246 42.246 42.246 23.297 0 42.246-18.953 42.246-42.246 0-23.297-18.953-42.246-42.246-42.246zm0 58.766c-9.125 0-16.52-7.3945-16.52-16.52s7.3945-16.52 16.52-16.52 16.52 7.3945 16.52 16.52c-0.003906 9.125-7.3984 16.52-16.52 16.52z"/>
 <path d="m454.44 270.56v124.13l4.9844-1.1211c6.6602-1.5 13.305 2.7031 14.805 9.3672 1.4961 6.668-2.7031 13.305-9.3672 14.805l-10.422 2.3438v66.066c12.621 9.1914 20.844 24.07 20.844 40.84 0 6.75-1.3398 13.191-3.7539 19.086h14.91l-0.003906-297.79h-20.723z"/>
 <g clip-path="url(#a)">
  <path d="m386.73 468.29 42.926-11.137-2.5664-10.766-48.062 12.469-25.246 33.457c-0.78125 1.0352-2 1.6406-3.2969 1.6406h-32.809c-2.2812 0-4.1289-1.8477-4.1289-4.1289v-66.047l-118.8-22.059-46.652 0.003906v136.42h8.3477c2.1133-27.363 25.055-48.98 52.953-48.98 27.895 0 50.84 21.617 52.953 48.98h95.176v-31.242c0-0.89844 0.29297-1.7695 0.83203-2.4883l26.113-34.605c0.55859-0.75 1.3555-1.2812 2.2578-1.5156z"/>
 </g>
 <path d="m179.77 508.64 7.0273 6.6289c6.125-5.1328 14.004-8.2305 22.602-8.2305 8.5977 0 16.48 3.0977 22.602 8.2305l7.0273-6.6289c-7.9062-6.9766-18.277-11.219-29.629-11.219-11.352 0-21.723 4.2461-29.629 11.219z"/>
 <path d="m520.11 401.32h-25.418v43.879l14.547 7.6914c1.3516 0.71484 2.1992 2.1211 2.1992 3.6523v38.57c0 1.5312-0.84766 2.9336-2.1992 3.6523l-14.547 7.6914v16.965l15.246 14.5 10.176 0.57031z"/>
 <path d="m321.8 485.7h26.621l24.875-32.965c0.5625-0.74609 1.3594-1.2773 2.2578-1.5078l14.156-3.6719-3.1133-12.207-64.797 14.57-0.003906 35.781z"/>
 <path d="m209.39 515.3c-14.875 0-26.977 12.102-26.977 26.977s12.102 26.977 26.977 26.977 26.977-12.102 26.977-26.977c0-14.879-12.102-26.977-26.977-26.977zm0 39.062c-6.6758 0-12.09-5.4102-12.09-12.09 0-6.6758 5.4102-12.09 12.09-12.09 6.6758 0 12.09 5.4102 12.09 12.09 0 6.6797-5.4141 12.09-12.09 12.09z"/>
</svg>