<?xml version="1.0" encoding="UTF-8"?>
<svg fill="white" width="800px" height="800px" version="1.1" viewBox="144 144 512 512" xmlns="http://www.w3.org/2000/svg">
 <g>
  <path d="m277.46 224.39c8.8164 9.7344 19.527 21.555 34.945 36.508l17.059-18.117c-6.6602-6.3477-12.957-12.395-18.621-17.863-47.539-45.949-61.828-59.594-119.14-63.312l-0.91797 2.3594c51.23 21.352 63.531 34.883 86.676 60.426z"/>
  <path d="m401.94 341.59c26.883 21.531 41.109 32.988 65.426 82.797l2.3477-1.0586c-7.1133-56.809-21.543-70.199-70.031-114.72-5.9062-5.4219-12.445-11.457-19.316-17.855l-17.051 18.086c15.906 14.543 28.359 24.527 38.625 32.75z"/>
  <path d="m320.18 282.16c-0.019531 0.019531-0.058593 0.03125-0.089843 0.058594l-2.5508 2.7188c7.3047 7.4766 12.949 12.758 17.332 16.586 0.39453 0.27344 0.84766 0.41406 1.2109 0.75391l2.8633 2.6992c0.050782 0.039063 0.13281 0.10938 0.17969 0.15234l2.5391-2.6914c0.011719-0.011719 0.011719-0.019532 0.019532-0.03125 0.011718-0.011719 0.019531-0.011719 0.03125-0.019532l34.883-36.969-21.602-20.344-34.762 37c-0.015625 0.015626-0.023438 0.058594-0.054688 0.085938z"/>
  <path d="m319.84 313.22c-4.1602-2.9727-9.4609-7.3945-16.426-13.914l-150.29 159.64 18.742 17.633 150.39-159.64c-1.1406-1.0703-1.8945-2.3594-2.418-3.7188z"/>
  <path d="m641.39 204.41c-4.9688-2.5508-11.023-0.58594-13.574 4.3633l-34.762 67.703-35.348 17.672c-0.17188 0.082031-0.26172 0.24219-0.43359 0.34375-0.61328 0.35156-1.0977 0.80469-1.6211 1.2695-0.47266 0.42188-0.96875 0.79688-1.3398 1.2812-0.39453 0.50391-0.63672 1.0664-0.9375 1.6406-0.29297 0.58594-0.61328 1.1289-0.78516 1.7617-0.17188 0.58594-0.17969 1.1875-0.23047 1.8047-0.058593 0.70703-0.14062 1.3789-0.058593 2.0977 0.03125 0.19141-0.039063 0.35156-0.011719 0.54297l7.6797 44.223-27.246 6.9609c-0.38281 0.10156-0.65625 0.35156-1.0195 0.49219-0.64453 0.24219-1.25 0.51562-1.8125 0.875-0.55469 0.34375-1.0273 0.73438-1.4805 1.168-0.47266 0.44141-0.89844 0.89844-1.2695 1.4297-0.37109 0.53516-0.66406 1.0586-0.94531 1.6523-0.26172 0.58594-0.48438 1.1602-0.63672 1.793-0.16016 0.65625-0.21094 1.3008-0.24219 1.9961-0.011718 0.38281-0.17187 0.73438-0.14062 1.1289l7.1328 93.961-56.441 0.007813h-0.070313c-1.3203 0.019531-2.6211 0.27344-3.8477 0.78516-1.2305 0.51562-2.3281 1.2812-3.2461 2.2266-0.019531 0-0.039062 0.019531-0.050781 0.019531l-22.551 23.145-59.27-12.363c-0.082032-0.019531-0.15234 0-0.23047 0-0.77734-0.16016-1.543-0.058594-2.3281-0.019531-0.53516 0.019531-1.0781-0.058594-1.5938 0.058594-0.68359 0.14062-1.2812 0.49219-1.9141 0.78516-0.54297 0.23047-1.1172 0.37109-1.6016 0.70703-0.49219 0.33203-0.85547 0.82812-1.2891 1.2578-0.51562 0.49219-1.0586 0.94531-1.4609 1.5312-0.050781 0.082031-0.13281 0.12109-0.17969 0.20312l-43.883 70.352-33.402 15.84c-0.16016 0.082031-0.25 0.21094-0.40234 0.29297-0.60547 0.33203-1.0977 0.78516-1.6328 1.2188-0.51562 0.43359-1.0391 0.82812-1.4492 1.3594-0.10938 0.14063-0.27344 0.20313-0.38281 0.35156l-38.895 54.098c-3.2461 4.5234-2.2148 10.82 2.3086 14.066 1.7734 1.2812 3.8281 1.8945 5.875 1.8945 3.1328 0 6.2266-1.4609 8.1914-4.1914l37.383-51.992 33.727-16.02c0.058594-0.019532 0.10156-0.082032 0.16016-0.12109 1.0391-0.51562 1.9531-1.2188 2.7812-2.0664 0.20312-0.21094 0.35156-0.43359 0.53516-0.64453 0.25-0.3125 0.54297-0.59375 0.76562-0.92578l41.727-66.895 57.797 12.062c0.67578 0.14062 1.3789 0.21094 2.0469 0.21094h0.011719 0.011719c1.2578 0 2.4688-0.27344 3.5977-0.72656 0.34375-0.12109 0.63672-0.35156 0.96875-0.53516 0.79688-0.41406 1.543-0.88672 2.207-1.4922 0.13281-0.12109 0.30078-0.16016 0.43359-0.29297l23.438-24.051h63.059c0.25 0 0.50391-0.019531 0.76562-0.039062 0.5625-0.039063 1.0273-0.29297 1.543-0.43359 0.66406-0.16016 1.3398-0.25 1.9453-0.55469 0.57422-0.27344 1.0391-0.66406 1.5312-1.0469 0.55469-0.39453 1.0977-0.72656 1.5508-1.2188 0.42188-0.45312 0.69531-1.0078 1.0391-1.5312 0.35156-0.57422 0.73438-1.0781 0.97656-1.7148 0.23047-0.61328 0.28125-1.2812 0.39453-1.9453 0.089843-0.53516 0.32422-1.0273 0.32422-1.5938 0-0.14062-0.070312-0.25-0.082031-0.39453 0-0.14062 0.058594-0.23047 0.050781-0.37109l-7.3516-96.363 28.082-7.1758c0.54297-0.14062 0.95703-0.48438 1.4609-0.69531 0.61328-0.27344 1.25-0.48438 1.793-0.86719 0.53516-0.38281 0.9375-0.86719 1.3789-1.3281 0.45312-0.47266 0.92578-0.88672 1.2812-1.4414 0.34375-0.53516 0.53516-1.1289 0.76562-1.7148 0.25-0.61328 0.53516-1.1797 0.65625-1.832 0.13281-0.64453 0.058594-1.3008 0.050782-1.9648 0-0.55469 0.15234-1.0781 0.050781-1.6406l-7.9922-46.02 31.598-15.801c0.089844-0.039062 0.15234-0.14062 0.23047-0.17969 1.0273-0.55469 1.9531-1.2578 2.75-2.1445 0.17969-0.20312 0.29297-0.43359 0.46484-0.65625 0.34375-0.45312 0.72656-0.88672 1.0078-1.4219l36.273-70.633c2.543-4.9609 0.58594-11.027-4.3594-13.574z"/>
  <path d="m474.82 321.34c0.35156 0.03125 0.70703 0.050781 1.0586 0.050781 5.0977 0 9.4609-3.8477 10.004-9.0273l5.1406-48.871c0.59375-5.5312-3.4375-10.5-8.9688-11.074-5.4609-0.52344-10.488 3.4375-11.074 8.9688l-5.1406 48.871c-0.57031 5.5391 3.4492 10.496 8.9805 11.082z"/>
  <path d="m414.58 407.36c-0.88672-5.5-6.0664-9.2891-11.547-8.3516l-39.598 6.3477c-5.4922 0.875-9.2383 6.0547-8.3516 11.547 0.79688 4.957 5.0664 8.4844 9.9336 8.4844 0.53516 0 1.0664-0.039063 1.6133-0.14062l39.598-6.3398c5.4922-0.88672 9.2383-6.0664 8.3516-11.547z"/>
  <path d="m488.97 343.49c1.9258 2.9844 5.168 4.6055 8.4727 4.6055 1.875 0 3.7695-0.52344 5.4609-1.6133l27.105-17.531c4.6758-3.0234 6.0156-9.2617 2.9922-13.934-3.0234-4.6641-9.25-6.0156-13.934-2.9922l-27.105 17.531c-4.6758 3.0312-6.0156 9.2656-2.9922 13.934z"/>
  <path d="m407.95 466.28c3.0117 0 5.9844-1.3398 7.9688-3.8984l14.41-18.539c3.4141-4.3945 2.6211-10.723-1.7852-14.125-4.3945-3.4258-10.73-2.6211-14.137 1.7734l-14.406 18.535c-3.4062 4.3945-2.6211 10.723 1.7852 14.148 1.8203 1.418 4.0078 2.1055 6.1641 2.1055z"/>
 </g>
</svg>