<?xml version="1.0" encoding="UTF-8"?>
<svg fill="white" width="800px" height="800px" version="1.1" viewBox="144 144 512 512" xmlns="http://www.w3.org/2000/svg">
 <g>
  <path d="m431.49 557.44c0 5.5273 2.8984 10.656 7.6406 13.5 0 0 78.875 49.434 78.949 49.477v-105.64l-86.59-49.48z"/>
  <path d="m534.05 402.25c-4.9961-3-11.207-3-16.207 0 0 0-79.719 48.031-80.227 48.426l88.328 50.477 88.328-50.477c-0.50391-0.39453-80.223-48.426-80.223-48.426z"/>
  <path d="m533.82 514.78v105.64c0.074219-0.042969 78.949-49.477 78.949-49.477 4.7422-2.8438 7.6406-7.9727 7.6406-13.5v-92.145z"/>
  <path d="m179.58 557.44c0 5.5273 2.8984 10.656 7.6406 13.5 0 0 78.875 49.434 78.949 49.477v-105.64l-86.59-49.48z"/>
  <path d="m282.15 402.25c-4.9961-3-11.207-3-16.207 0 0 0-79.719 48.031-80.227 48.426l88.332 50.477 88.328-50.477c-0.50781-0.39453-80.227-48.426-80.227-48.426z"/>
  <path d="m281.92 620.42c0.074219-0.042969 78.949-49.477 78.949-49.477 4.7461-2.8438 7.6445-7.9727 7.6445-13.5v-92.145l-86.594 49.48z"/>
  <path d="m305.54 337.03c0 5.5273 2.8984 10.656 7.6406 13.5 0 0 78.875 49.434 78.949 49.477v-105.64l-86.59-49.484z"/>
  <path d="m408.1 181.83c-4.9961-3-11.207-3-16.207 0 0 0-79.719 48.031-80.227 48.426l88.332 50.473 88.328-50.477c-0.50781-0.39453-80.227-48.422-80.227-48.422z"/>
  <path d="m494.46 337.03v-92.148l-86.594 49.48v105.64c0.074218-0.042969 78.949-49.477 78.949-49.477 4.75-2.8438 7.6445-7.9688 7.6445-13.496z"/>
 </g>
</svg>