<?xml version="1.0" encoding="UTF-8"?>
<svg fill="white" focusable="false" width="800px" height="800px" version="1.1" viewBox="144 144 512 512" xmlns="http://www.w3.org/2000/svg">
 <g>
  <path d="m379.03 242.59c-11.254 0.33594-21.93 5.0391-29.773 13.117-7.8398 8.0781-12.23 18.891-12.23 30.148v137.76c0 4.1758-1.6602 8.1797-4.6133 11.133s-6.957 4.6133-11.133 4.6133v-52.922c-0.003906-6.1797-1.8242-12.219-5.2344-17.371-3.4141-5.1484-8.2656-9.1836-13.953-11.594-22.957-9.7656-48.902-9.7656-71.863 0-5.6797 2.418-10.527 6.4531-13.934 11.602-3.4062 5.1523-5.2227 11.188-5.2227 17.363v155.26h-15.746v15.742h141.7v-15.742h-15.746v-86.594c8.3516 0 16.359-3.3164 22.266-9.2227 5.9062-5.9023 9.2227-13.914 9.2227-22.266v-137.76c0.003906-9.8438 5.2578-18.934 13.781-23.855 8.5234-4.918 19.023-4.918 27.547 0 8.5195 4.9219 13.773 14.012 13.777 23.855v7.3164c-3.5234 0.35938-7.0156 0.95312-10.457 1.7852-8.2344 1.9922-15.566 6.6953-20.809 13.352-5.2422 6.6602-8.0938 14.887-8.0938 23.363v210.02h-15.746v15.742h125.95v-15.742h-15.742v-31.488c8.3477 0 16.359-3.3164 22.262-9.2227 5.9062-5.9062 9.2227-13.914 9.2227-22.266v-133.82c0.003906-9.8398 5.2578-18.934 13.781-23.852 8.5234-4.9219 19.023-4.9219 27.547 0 8.5234 4.918 13.773 14.012 13.777 23.852v12.793c-9.125 0.67969-18.117 2.5625-26.754 5.5938-3.6875 1.3047-6.8828 3.7188-9.1406 6.9141-2.2578 3.1914-3.4688 7.0117-3.4648 10.922v113.96c0 4.4648 1.5781 8.7891 4.4609 12.199 2.8828 3.4102 6.8789 5.6914 11.281 6.4336v27.984h-15.742v15.742h94.465v-15.742h-15.746v-27.984c4.4062-0.74219 8.4023-3.0234 11.285-6.4336 2.8828-3.4102 4.4609-7.7344 4.4609-12.199v-113.96c0-3.9141-1.2148-7.7344-3.4805-10.93-2.2617-3.1953-5.4648-5.6094-9.1602-6.9062-8.6211-3.0273-17.605-4.9102-26.719-5.5938v-12.793c0-15.469-8.2539-29.762-21.648-37.496-13.398-7.7344-29.902-7.7344-43.297 0-13.395 7.7344-21.648 22.027-21.648 37.496v133.82c0 4.1758-1.6602 8.1797-4.6094 11.133-2.9531 2.9531-6.9609 4.6094-11.133 4.6094v-162.79c-0.007812-8.4805-2.8633-16.711-8.1094-23.371-5.25-6.6562-12.586-11.359-20.828-13.344-3.4297-0.83203-6.9141-1.4258-10.426-1.7852v-7.3164c0-11.707-4.7422-22.91-13.145-31.062-8.3984-8.1523-19.742-12.555-31.441-12.203zm35.055 65.957c5.4727-0.14062 10.945 0.4375 16.266 1.7227 4.8125 1.1602 9.0938 3.9023 12.156 7.7891 3.0625 3.8906 4.7266 8.6953 4.7266 13.645v174.29c0.16406 0.09375 0.32812 0.1875 0.49219 0.27734-0.33203 1.2969-0.49609 2.6289-0.49219 3.9688v31.488h-62.977v-210.02c0-4.9453 1.6602-9.7461 4.7148-13.637 3.0547-3.8867 7.332-6.6328 12.137-7.7969 2.2305-0.53516 4.4883-0.94531 6.7656-1.2305 2.0586-0.26562 4.1328-0.42969 6.2109-0.49219zm-147.75 57.32c10.18 0.027343 20.25 2.0977 29.613 6.0859 2.8438 1.207 5.2695 3.2227 6.9727 5.8008 1.707 2.5742 2.6172 5.5938 2.6211 8.6836v155.26h-78.723v-155.26c0-3.0859 0.90625-6.1016 2.6055-8.6797 1.7031-2.5742 4.1211-4.5938 6.9609-5.8047 9.4688-4.0352 19.656-6.1055 29.949-6.0859zm287.91 7.3164c11.828-0.43359 23.621 1.5117 34.684 5.7188v118.39c-20.277 7.7266-42.695 7.7266-62.977 0v-118.39c9.0547-3.4414 18.613-5.375 28.293-5.7188zm-12.547 144.43c10.434 1.5977 21.051 1.5977 31.488 0v24.078h-31.488z"/>
  <path d="m211.07 163.84c-12.527 0-24.539 4.9766-33.398 13.832-8.8594 8.8594-13.836 20.871-13.836 33.398v377.86c0 12.523 4.9766 24.539 13.836 33.398 8.8594 8.8555 20.871 13.832 33.398 13.832h377.86c12.527 0 24.543-4.9766 33.398-13.832 8.8594-8.8594 13.836-20.875 13.836-33.398v-377.86c0-12.527-4.9766-24.539-13.836-33.398-8.8555-8.8555-20.871-13.832-33.398-13.832zm0 15.742h377.86c8.3516 0 16.359 3.3164 22.266 9.2227s9.2227 13.914 9.2227 22.266v377.86c0 8.3516-3.3164 16.363-9.2227 22.266-5.9023 5.9062-13.914 9.2227-22.266 9.2227h-377.86c-8.3516 0-16.359-3.3164-22.266-9.2227-5.9062-5.9023-9.2227-13.914-9.2227-22.266v-377.86c0-8.3516 3.3164-16.359 9.2227-22.266s13.914-9.2227 22.266-9.2227z"/>
  <path d="m265.47 400c-6.1406 0.18359-11.969 2.75-16.246 7.1602s-6.668 10.312-6.6641 16.453c0 8.4375 4.5 16.234 11.809 20.453 7.3047 4.2188 16.309 4.2188 23.613 0 7.3086-4.2188 11.809-12.016 11.809-20.453 0.003907-6.3867-2.582-12.504-7.1641-16.953-4.582-4.4492-10.773-6.8516-17.156-6.6602zm0.46094 15.742c2.1289-0.066407 4.1953 0.73437 5.7227 2.2188 1.5312 1.4805 2.3945 3.5234 2.3945 5.6523-0.003906 4.3477-3.5273 7.8672-7.8711 7.8672-4.3477 0-7.8711-3.5195-7.875-7.8672 0-4.2539 3.375-7.7383 7.6289-7.8711z"/>
  <path d="m431.47 352.77c0.003906-4.1758-1.6562-8.1797-4.6094-11.133-2.9531-2.957-6.957-4.6133-11.133-4.6133s-8.1836 1.6562-11.133 4.6133c-2.9531 2.9531-4.6133 6.957-4.6133 11.133s1.6602 8.1836 4.6133 11.137c2.9492 2.9531 6.957 4.6133 11.133 4.6133s8.1797-1.6602 11.133-4.6133 4.6133-6.9609 4.6094-11.137z"/>
 </g>
</svg>