<?xml version="1.0" encoding="UTF-8"?>
<svg fill="white" width="800px" height="800px" version="1.1" viewBox="144 144 512 512" xmlns="http://www.w3.org/2000/svg">
 <path d="m563.48 269.01-78.719-94.465c-1.4961-1.7969-3.7109-2.832-6.0469-2.832h-236.16c-4.3477 0-7.8711 3.5234-7.8711 7.8711v440.83c0 2.0898 0.82812 4.0898 2.3047 5.5664 1.4766 1.4766 3.4766 2.3086 5.5664 2.3086h314.88c2.0898 0 4.0898-0.83203 5.5664-2.3086 1.4766-1.4766 2.3086-3.4766 2.3086-5.5664v-346.37c0-1.8438-0.64844-3.625-1.8281-5.0391zm-13.918 343.54h-299.14v-425.09h220.42v86.594c0 2.0859 0.82812 4.0898 2.3047 5.5664 1.4766 1.4766 3.4805 2.3047 5.5664 2.3047h70.848zm-251.9-377.86c0-4.3477 3.5234-7.875 7.8711-7.875h86.59c4.3477 0 7.875 3.5273 7.875 7.875s-3.5273 7.8711-7.875 7.8711h-86.59c-4.3477 0-7.8711-3.5234-7.8711-7.8711zm7.8711 94.465 188.93-0.003906c4.3477 0 7.875 3.5273 7.875 7.875 0 4.3477-3.5273 7.8711-7.875 7.8711h-188.93c-4.3477 0-7.8711-3.5234-7.8711-7.8711 0-4.3477 3.5234-7.875 7.8711-7.875zm196.8 47.23c0 2.0859-0.83203 4.0898-2.3086 5.5664-1.4727 1.4766-3.4766 2.3047-5.5664 2.3047h-188.93c-4.3477 0-7.8711-3.5234-7.8711-7.8711 0-4.3477 3.5234-7.8711 7.8711-7.8711h188.93c2.0898 0 4.0938 0.82812 5.5664 2.3047 1.4766 1.4766 2.3086 3.4766 2.3086 5.5664zm0 39.359c0 2.0898-0.83203 4.0898-2.3086 5.5664-1.4727 1.4766-3.4766 2.3047-5.5664 2.3047h-188.93c-4.3477 0-7.8711-3.5234-7.8711-7.8711 0-4.3477 3.5234-7.8711 7.8711-7.8711h188.93c2.0898 0 4.0938 0.82812 5.5664 2.3047 1.4766 1.4766 2.3086 3.4805 2.3086 5.5664zm-125.95 39.359v62.977c0 2.0898-0.82812 4.0898-2.3047 5.5664-1.4766 1.4766-3.4805 2.3047-5.5664 2.3047h-62.977c-4.3477 0-7.8711-3.5234-7.8711-7.8711v-62.977c0-4.3477 3.5234-7.8711 7.8711-7.8711h62.977c2.0859 0 4.0898 0.82812 5.5664 2.3047 1.4766 1.4766 2.3047 3.4805 2.3047 5.5664zm0 102.34c0 2.0898-0.82812 4.0898-2.3047 5.5664-1.4766 1.4766-3.4805 2.3086-5.5664 2.3086h-62.977c-4.3477 0-7.8711-3.5273-7.8711-7.875s3.5234-7.8711 7.8711-7.8711h62.977c2.0859 0 4.0898 0.82812 5.5664 2.3047 1.4766 1.4766 2.3047 3.4805 2.3047 5.5664z"/>
</svg>