<?xml version="1.0" encoding="UTF-8"?>
<svg fill="white" width="800px" height="800px" version="1.1" viewBox="144 144 512 512" xmlns="http://www.w3.org/2000/svg">
 <path d="m596.8 253.05c0 4.1758-1.6602 8.1797-4.6133 11.133s-6.957 4.6094-11.133 4.6094h-209.92c-5.625 0-10.82-3-13.633-7.8711-2.8125-4.8711-2.8125-10.871 0-15.742s8.0078-7.875 13.633-7.875h209.92c4.1758 0 8.1797 1.6602 11.133 4.6133s4.6133 6.957 4.6133 11.133zm-15.742 131.2h-209.93c-5.625 0-10.82 3-13.633 7.8711s-2.8125 10.875 0 15.746 8.0078 7.8711 13.633 7.8711h209.92c5.625 0 10.824-3 13.637-7.8711s2.8125-10.875 0-15.746-8.0117-7.8711-13.637-7.8711zm0 146.95h-209.93c-5.625 0-10.82 3-13.633 7.8711-2.8125 4.8711-2.8125 10.875 0 15.746s8.0078 7.8711 13.633 7.8711h209.92c5.625 0 10.824-3 13.637-7.8711s2.8125-10.875 0-15.746c-2.8125-4.8711-8.0117-7.8711-13.637-7.8711zm-335.88-320.13c-11.137 0-21.816 4.4219-29.688 12.297-7.875 7.875-12.297 18.551-12.297 29.688 0 11.133 4.4219 21.812 12.297 29.688 7.8711 7.8711 18.551 12.297 29.688 12.297 11.133 0 21.812-4.4258 29.688-12.297 7.8711-7.875 12.297-18.555 12.297-29.688 0-11.137-4.4258-21.812-12.297-29.688-7.875-7.875-18.555-12.297-29.688-12.297zm0 146.95c-11.137 0-21.816 4.4219-29.688 12.297-7.875 7.8711-12.297 18.551-12.297 29.688 0 11.133 4.4219 21.812 12.297 29.688 7.8711 7.8711 18.551 12.297 29.688 12.297 11.133 0 21.812-4.4258 29.688-12.297 7.8711-7.875 12.297-18.555 12.297-29.688 0-11.137-4.4258-21.816-12.297-29.688-7.875-7.875-18.555-12.297-29.688-12.297zm0 146.95v-0.003907c-11.137 0-21.816 4.4258-29.688 12.297-7.875 7.875-12.297 18.555-12.297 29.688 0 11.137 4.4219 21.816 12.297 29.688 7.8711 7.875 18.551 12.297 29.688 12.297 11.133 0 21.812-4.4219 29.688-12.297 7.8711-7.8711 12.297-18.551 12.297-29.688 0-11.133-4.4258-21.812-12.297-29.688-7.875-7.8711-18.555-12.297-29.688-12.297z"/>
</svg>