<?xml version="1.0" encoding="UTF-8"?>
<svg fill="white" width="800px" height="800px" version="1.1" viewBox="144 144 512 512" xmlns="http://www.w3.org/2000/svg">
 <defs>
  <clipPath id="b">
   <path d="m148.09 478h98.906v30h-98.906z"/>
  </clipPath>
  <clipPath id="a">
   <path d="m534 341h117.9v156h-117.9z"/>
  </clipPath>
 </defs>
 <path d="m270.17 478.38c-16.516 0-29.953 13.438-29.953 29.953s13.438 29.953 29.953 29.953 29.953-13.438 29.953-29.953-13.438-29.953-29.953-29.953zm0 43.723c-7.6055 0-13.77-6.1641-13.77-13.77s6.1641-13.77 13.77-13.77 13.77 6.1641 13.77 13.77-6.1641 13.77-13.77 13.77z"/>
 <path d="m347.94 478.38h123.79v18.152h-123.79z"/>
 <path d="m187.89 437.98h262.54v11.941h-262.54z"/>
 <g clip-path="url(#b)">
  <path d="m246.48 478.38h-68.461v14.977c0 2.2812-1.8477 4.1289-4.1289 4.1289l-25.801 0.003906v9.8164h83.891c0.3125-11.711 5.9141-22.121 14.5-28.926z"/>
 </g>
 <path d="m486.62 332.1 3.3516-13.664-38.43-11.211-3.918 12.797 22.082 28.996z"/>
 <path d="m443.62 304.91-118.8-34.648-3.168 10.859 118.66 34.609z"/>
 <path d="m166.58 470.12h305.15v-52.348h-305.15zm13.047-36.273c0-2.2812 1.8477-4.1289 4.1289-4.1289h270.8c2.2812 0 4.1289 1.8477 4.1289 4.1289v20.203c0 2.2812-1.8477 4.1289-4.1289 4.1289l-270.79-0.003907c-2.2812 0-4.1289-1.8477-4.1289-4.1289z"/>
 <path d="m284.48 409.52h19.066l3.7891-15.965c0.29297-1.2266 0.007813-2.5-0.77344-3.4922-0.78125-0.98828-1.957-1.5586-3.2188-1.5586h-18.66c-1.2617 0-2.4375 0.56641-3.2188 1.5586-0.78516 0.98828-1.0625 2.2617-0.77344 3.4922z"/>
 <path d="m285.47 296.05 10.016-34.344 21.402 6.2422-10.016 34.344z"/>
 <path d="m458.68 409.52h13.047v-25.059l-13.047 9.1875z"/>
 <path d="m563.87 478.38c-16.516 0-29.953 13.438-29.953 29.953s13.438 29.953 29.953 29.953 29.953-13.438 29.953-29.953-13.438-29.953-29.953-29.953zm0 43.723c-7.6055 0-13.77-6.1641-13.77-13.77s6.1641-13.77 13.77-13.77c7.6055 0 13.77 6.1641 13.77 13.77s-6.1641 13.77-13.77 13.77z"/>
 <path d="m534.79 460.68c8.7109-5.3125 18.777-8.1758 29.074-8.1758 15.758 0 30.285 6.7422 40.57 17.613h5.8594v-53.129l-75.504-28.922z"/>
 <path d="m563.87 460.77c-11.16 0-22.008 3.9492-30.551 11.117-1.2305 1.0312-2.9453 1.2578-4.3984 0.58203-1.4531-0.67969-2.3867-2.1367-2.3867-3.7422v-8.7539h-24.352c-2.2812 0-4.1289-1.8477-4.1289-4.1289v-17.09h-18.062v57.789h47.539c4.9844-15.312 19.387-26.41 36.34-26.41 14.117 0 26.461 7.7031 33.078 19.117l7.1797-6.1562c-8.5156-13.465-23.582-22.324-40.258-22.324z"/>
 <path d="m631.57 470.12v-57.16l-13.016 4.1953v52.965z"/>
 <path d="m556.45 359.41-3.3867 7.1523v19.66l14.32 5.4844v-32.297z"/>
 <path d="m593.51 359.41v42.305l21.039 8.0586 15.645-5.0469-18.535-45.316z"/>
 <path d="m479.99 376.82v53.66h18.406l7.0742-82.078-14.5-8.9648-6.0156 6.0156z"/>
 <g clip-path="url(#a)">
  <path d="m624.57 341.27h-77.586l-12.191 22.293v15.656l10.012 3.8359v-17.426c0-0.60937 0.13672-1.2148 0.39844-1.7695l4.9062-10.352c0.68359-1.4414 2.1367-2.3594 3.7305-2.3594h17.672c2.2812 0 4.1289 1.8477 4.1289 4.1289v39.594l9.6055 3.6797 0.003906-43.273c0-2.2812 1.8477-4.1289 4.1289-4.1289h25.051c1.6758 0 3.1875 1.0156 3.8203 2.5664l21.273 52.008c0.20312 0.49609 0.30859 1.0273 0.30859 1.5625v66.961c0 2.2812-1.8477 4.1289-4.1289 4.1289h-24.793c3.5117 5.4648 6.1094 11.582 7.5312 18.152h33.461v-88.434z"/>
 </g>
 <path d="m285.74 385.4c2.2812 0 4.1289-1.8477 4.1289-4.1289v-75.676c0-2.2812-1.8477-4.1289-4.1289-4.1289s-4.1289 1.8477-4.1289 4.1289v75.676c0 2.2812 1.8477 4.1289 4.1289 4.1289z"/>
 <path d="m298.15 310.42v70.852c0 2.2812 1.8477 4.1289 4.1289 4.1289s4.1289-1.8477 4.1289-4.1289v-70.852c0-2.2812-1.8477-4.1289-4.1289-4.1289s-4.1289 1.8477-4.1289 4.1289z"/>
</svg>