<svg xmlns="http://www.w3.org/2000/svg" viewBox="0 0 512 512">
  <path fill="#06e" d="M233.5-.5h44c100.263 12.54 171.763 64.54 214.5 156 10.297 25.187 16.797 51.187 19.5 78v44c-12.54 100.263-64.54 171.763-156 214.5-25.187 10.297-51.187 16.797-78 19.5h-44C133.237 498.96 61.7366 446.96 19 355.5c-10.29668-25.187-16.79668-51.187-19.5-78v-44C12.04 133.237 64.04 61.7366 155.5 19c25.187-10.29668 51.187-16.79668 78-19.5Z" opacity=".998"/>
  <path fill="#b7d3f9" d="M132.5 99.5v312h35v-200c.999 66.831 1.332 133.831 1 201h-37c-.333-104.501.001-208.835 1-313Z"/>
  <path fill="#fdfefe" d="M132.5 99.5c15.245-.3242 30.411.0092 45.5 1 55.303 86.134 110.803 172.134 166.5 258 .846-20.018.346-40.018-1.5-60-.5-66.332-.667-132.666-.5-199h37v313c-15.578.324-31.078-.009-46.5-1-55.417-86.503-111.084-172.837-167-259 .056 19.671.556 39.337 1.5 59v200h-35v-312Z"/>
</svg>